<svg width="120" height="120" viewBox="0 0 120 120" fill="none" xmlns="http://www.w3.org/2000/svg">
<g clip-path="url(#clip0_9514_75314)">
<path d="M118.747 29.8995C117.044 16.7341 109.883 0 79.516 0C58.5448 0 58.2614 10.0453 35.9243 5.06484C19.6463 1.43555 3.46081 13.4084 1.21081 30.1338C-1.21638 48.177 11.8353 56.4483 16.0723 71.5868C20.6428 87.9162 23.9255 120 44.2622 120C66.6867 120 67.8446 102.648 82.3695 83.6084C96.345 65.2882 122.36 57.8309 118.747 29.8995Z" fill="url(#paint0_linear_9514_75314)"/>
<path opacity="0.1" d="M104.975 67.0116C104.975 59.0344 102.037 51.7437 97.1836 46.1618V20.1328C97.1836 17.543 95.0859 15.4453 92.4961 15.4453H27.5039C24.9141 15.4453 22.8164 17.543 22.8164 20.1328V108.3C22.8164 110.89 24.9141 112.987 27.5039 112.987H92.4961C95.0859 112.987 97.1836 110.89 97.1836 108.3V87.8613C102.037 82.2795 104.975 74.9887 104.975 67.0116Z" fill="#0000CB"/>
<path d="M97.1836 14.5078V102.675C97.1836 105.265 95.0859 107.362 92.4961 107.362H27.5039C24.9141 107.362 22.8164 105.265 22.8164 102.675V14.5078C22.8164 11.918 24.9141 9.82031 27.5039 9.82031H92.4961C95.0859 9.82031 97.1836 11.918 97.1836 14.5078Z" fill="white"/>
<path d="M27.7383 14.7422H92.2617V102.441H27.7383V14.7422Z" fill="#6582FD"/>
<path d="M37.049 36.7528H35.7996C34.2743 36.7528 33.0333 35.512 33.0333 33.9867V30.1296C33.0333 28.6043 34.2743 27.3633 35.7996 27.3633H37.049C38.5744 27.3633 39.8154 28.6043 39.8154 30.1296V33.9867C39.8154 35.512 38.5744 36.7528 37.049 36.7528ZM35.7996 29.707C35.5666 29.707 35.377 29.8966 35.377 30.1296V33.9867C35.377 34.2197 35.5666 34.4091 35.7996 34.4091H37.049C37.282 34.4091 37.4716 34.2195 37.4716 33.9867V30.1296C37.4716 29.8966 37.282 29.707 37.049 29.707H35.7996Z" fill="white"/>
<path d="M45.3628 36.7528H44.1131C42.5878 36.7528 41.3468 35.512 41.3468 33.9867V30.1296C41.3468 28.6043 42.5878 27.3633 44.1131 27.3633H45.3628C46.8881 27.3633 48.1291 28.6043 48.1291 30.1296V33.9867C48.1291 35.512 46.8881 36.7528 45.3628 36.7528ZM44.1131 29.707C43.8802 29.707 43.6906 29.8966 43.6906 30.1296V33.9867C43.6906 34.2197 43.8802 34.4091 44.1131 34.4091H45.3628C45.5958 34.4091 45.7854 34.2195 45.7854 33.9867V30.1296C45.7854 29.8966 45.5958 29.707 45.3628 29.707H44.1131Z" fill="white"/>
<path d="M45.2381 47.7489H43.9887C42.4634 47.7489 41.2224 46.5081 41.2224 44.9828V41.1257C41.2224 39.6004 42.4634 38.3594 43.9887 38.3594H45.2381C46.7634 38.3594 48.0045 39.6004 48.0045 41.1257V44.9828C48.0045 46.5079 46.7634 47.7489 45.2381 47.7489ZM43.9887 40.7031C43.7557 40.7031 43.5661 40.8927 43.5661 41.1257V44.9828C43.5661 45.2158 43.7557 45.4052 43.9887 45.4052H45.2381C45.4711 45.4052 45.6607 45.2155 45.6607 44.9828V41.1257C45.6607 40.8927 45.4711 40.7031 45.2381 40.7031H43.9887Z" fill="white"/>
<path d="M50.944 29.707C51.5912 29.707 52.1158 29.1824 52.1158 28.5352C52.1158 27.8879 51.5912 27.3633 50.944 27.3633C50.2968 27.3633 49.7721 27.8879 49.7721 28.5352C49.7721 29.1824 50.2968 29.707 50.944 29.707Z" fill="white"/>
<path d="M33.9174 21.6543C34.5646 21.6543 35.0892 21.1296 35.0892 20.4824C35.0892 19.8352 34.5646 19.3105 33.9174 19.3105C33.2701 19.3105 32.7455 19.8352 32.7455 20.4824C32.7455 21.1296 33.2701 21.6543 33.9174 21.6543Z" fill="white"/>
<path d="M37.6289 21.6543C38.2761 21.6543 38.8008 21.1296 38.8008 20.4824C38.8008 19.8352 38.2761 19.3105 37.6289 19.3105C36.9817 19.3105 36.457 19.8352 36.457 20.4824C36.457 21.1296 36.9817 21.6543 37.6289 21.6543Z" fill="white"/>
<path d="M41.3407 21.6543C41.9879 21.6543 42.5126 21.1296 42.5126 20.4824C42.5126 19.8352 41.9879 19.3105 41.3407 19.3105C40.6935 19.3105 40.1688 19.8352 40.1688 20.4824C40.1688 21.1296 40.6935 21.6543 41.3407 21.6543Z" fill="white"/>
<path d="M78.8333 20.4824C78.8333 21.1295 79.358 21.6543 80.0051 21.6543H86.0827C86.7298 21.6543 87.2546 21.1295 87.2546 20.4824C87.2546 19.8353 86.7298 19.3105 86.0827 19.3105H80.0051C79.358 19.3105 78.8333 19.8351 78.8333 20.4824Z" fill="white"/>
<path d="M36.0459 87.8785H34.3959C33.7488 87.8785 33.2241 87.3538 33.2241 86.7066V85.0566C33.2241 84.4095 33.7488 83.8848 34.3959 83.8848H36.0459C36.693 83.8848 37.2178 84.4095 37.2178 85.0566V86.7066C37.2178 87.354 36.693 87.8785 36.0459 87.8785Z" fill="white"/>
<path d="M33.2241 91.2559C33.2241 91.903 33.7488 92.4277 34.3959 92.4277H41.8798C42.5269 92.4277 43.0516 91.903 43.0516 91.2559C43.0516 90.6088 42.5269 90.084 41.8798 90.084H34.3959C33.7488 90.084 33.2241 90.6088 33.2241 91.2559Z" fill="white"/>
<path d="M46.0985 94.6309H34.3959C33.7488 94.6309 33.2241 95.1556 33.2241 95.8027C33.2241 96.4498 33.7488 96.9746 34.3959 96.9746H46.0985C46.7456 96.9746 47.2704 96.4498 47.2704 95.8027C47.2704 95.1556 46.7456 94.6309 46.0985 94.6309Z" fill="white"/>
<path d="M73.1812 93.1811C90.7404 93.1811 104.975 78.9466 104.975 61.3874C104.975 43.8283 90.7404 29.5938 73.1812 29.5938C55.6221 29.5938 41.3876 43.8283 41.3876 61.3874C41.3876 78.9466 55.6221 93.1811 73.1812 93.1811Z" fill="white"/>
<path d="M97.1836 88.1805C96.5362 88.1805 96.0117 88.7053 96.0117 89.3524V102.677C96.0117 104.616 94.4346 106.193 92.4961 106.193H27.5039C25.5654 106.193 23.9883 104.616 23.9883 102.677V14.5078C23.9883 12.5693 25.5654 10.9922 27.5039 10.9922H92.4961C94.4346 10.9922 96.0117 12.5693 96.0117 14.5078V37.6308C90.0834 31.9315 82.0348 28.4222 73.1812 28.4222C55.0041 28.4222 40.2159 43.2103 40.2159 61.3875C40.2159 68.9545 42.7113 76.072 47.4326 81.9706C47.8371 82.4759 48.5745 82.5574 49.0795 82.1531C49.5848 81.7486 49.6666 81.011 49.2621 80.5059C44.8772 75.0274 42.5595 68.4164 42.5595 61.3875C42.5595 44.5027 56.2962 30.7659 73.181 30.7659C90.0659 30.7659 103.803 44.5027 103.803 61.3875C103.803 78.2723 90.0659 92.0093 73.181 92.0093C66.2095 92.0093 59.3866 89.602 53.9686 85.2309C53.4649 84.8245 52.7273 84.9035 52.3207 85.4072C51.9145 85.9109 51.9933 86.6487 52.497 87.0551C58.3301 91.7613 65.6756 94.3531 73.181 94.3531C91.3582 94.3531 106.146 79.5647 106.146 61.3875C106.146 53.2938 103.213 45.8737 98.3552 40.1302V14.5078C98.3552 11.277 95.7267 8.64844 92.4959 8.64844H27.5039C24.273 8.64844 21.6445 11.277 21.6445 14.5078V102.677C21.6445 105.908 24.273 108.536 27.5039 108.536H92.4961C95.727 108.536 98.3555 105.908 98.3555 102.677V89.3522C98.3555 88.7051 97.8309 88.1805 97.1836 88.1805Z" fill="#0000CB"/>
<path d="M73.1812 87.8423C87.7916 87.8423 99.6356 75.9983 99.6356 61.388C99.6356 46.7776 87.7916 34.9336 73.1812 34.9336C58.5709 34.9336 46.7269 46.7776 46.7269 61.388C46.7269 75.9983 58.5709 87.8423 73.1812 87.8423Z" fill="#6582FD"/>
<path d="M73.1815 32.5645C72.5341 32.5645 72.0096 33.0892 72.0096 33.7363V40.0218C72.0096 40.6689 72.5341 41.1937 73.1815 41.1937C73.8288 41.1937 74.3533 40.6689 74.3533 40.0218V33.7363C74.3533 33.0892 73.8286 32.5645 73.1815 32.5645Z" fill="#0000CB"/>
<path d="M73.1815 81.582C72.5341 81.582 72.0096 82.1068 72.0096 82.7539V89.0396C72.0096 89.6867 72.5341 90.2115 73.1815 90.2115C73.8288 90.2115 74.3533 89.6867 74.3533 89.0396V82.7539C74.3533 82.1068 73.8286 81.582 73.1815 81.582Z" fill="#0000CB"/>
<path d="M100.833 60.2168H94.5475C93.9002 60.2168 93.3757 60.7416 93.3757 61.3887C93.3757 62.0358 93.9002 62.5605 94.5475 62.5605H100.833C101.48 62.5605 102.005 62.0358 102.005 61.3887C102.005 60.7416 101.48 60.2168 100.833 60.2168Z" fill="#0000CB"/>
<path d="M51.8151 60.2168H45.5297C44.8823 60.2168 44.3578 60.7416 44.3578 61.3887C44.3578 62.0358 44.8823 62.5605 45.5297 62.5605H51.8151C52.4625 62.5605 52.987 62.0358 52.987 61.3887C52.987 60.7416 52.4622 60.2168 51.8151 60.2168Z" fill="#0000CB"/>
<path d="M75.266 61.3866H71.0967V45.8437C71.0967 45.1966 71.6215 44.6719 72.2686 44.6719H74.0942C74.7413 44.6719 75.266 45.1966 75.266 45.8437V61.3866Z" fill="white"/>
<path d="M91.1913 70.4511L76.8595 62.1612C76.9118 61.9114 76.9401 61.6529 76.9401 61.3876C76.9401 59.3117 75.2573 57.6289 73.1815 57.6289C71.1056 57.6289 69.4228 59.3117 69.4228 61.3876C69.4228 63.4634 71.1056 65.1463 73.1815 65.1463C74.1433 65.1463 75.0178 64.782 75.6825 64.1879L90.018 72.4798C90.5782 72.804 91.2951 72.6125 91.6193 72.0521C91.9432 71.492 91.7517 70.7752 91.1913 70.4511Z" fill="#0000CB"/>
<path d="M73.1813 62.9629C74.0518 62.9629 74.7574 62.2572 74.7574 61.3867C74.7574 60.5162 74.0518 59.8105 73.1813 59.8105C72.3108 59.8105 71.6051 60.5162 71.6051 61.3867C71.6051 62.2572 72.3108 62.9629 73.1813 62.9629Z" fill="white"/>
<path d="M61.5127 42.3496C62.1599 42.3496 62.6846 41.8249 62.6846 41.1777C62.6846 40.5305 62.1599 40.0059 61.5127 40.0059C60.8655 40.0059 60.3408 40.5305 60.3408 41.1777C60.3408 41.8249 60.8655 42.3496 61.5127 42.3496Z" fill="white"/>
<path d="M84.8499 82.7715C85.4971 82.7715 86.0217 82.2468 86.0217 81.5996C86.0217 80.9524 85.4971 80.4277 84.8499 80.4277C84.2026 80.4277 83.678 80.9524 83.678 81.5996C83.678 82.2468 84.2026 82.7715 84.8499 82.7715Z" fill="white"/>
<path d="M52.9706 50.8926C53.6179 50.8926 54.1425 50.3679 54.1425 49.7207C54.1425 49.0735 53.6179 48.5488 52.9706 48.5488C52.3234 48.5488 51.7988 49.0735 51.7988 49.7207C51.7988 50.3679 52.3234 50.8926 52.9706 50.8926Z" fill="white"/>
<path d="M93.3919 74.2305C94.0391 74.2305 94.5638 73.7058 94.5638 73.0586C94.5638 72.4114 94.0391 71.8867 93.3919 71.8867C92.7447 71.8867 92.22 72.4114 92.22 73.0586C92.22 73.7058 92.7447 74.2305 93.3919 74.2305Z" fill="white"/>
<path d="M84.8499 42.3496C85.4971 42.3496 86.0217 41.8249 86.0217 41.1777C86.0217 40.5305 85.4971 40.0059 84.8499 40.0059C84.2026 40.0059 83.678 40.5305 83.678 41.1777C83.678 41.8249 84.2026 42.3496 84.8499 42.3496Z" fill="white"/>
<path d="M61.5127 82.7715C62.1599 82.7715 62.6846 82.2468 62.6846 81.5996C62.6846 80.9524 62.1599 80.4277 61.5127 80.4277C60.8655 80.4277 60.3408 80.9524 60.3408 81.5996C60.3408 82.2468 60.8655 82.7715 61.5127 82.7715Z" fill="white"/>
<path d="M93.3919 50.8926C94.0391 50.8926 94.5638 50.3679 94.5638 49.7207C94.5638 49.0735 94.0391 48.5488 93.3919 48.5488C92.7447 48.5488 92.22 49.0735 92.22 49.7207C92.22 50.3679 92.7447 50.8926 93.3919 50.8926Z" fill="white"/>
<path d="M52.9706 74.2305C53.6179 74.2305 54.1425 73.7058 54.1425 73.0586C54.1425 72.4114 53.6179 71.8867 52.9706 71.8867C52.3234 71.8867 51.7988 72.4114 51.7988 73.0586C51.7988 73.7058 52.3234 74.2305 52.9706 74.2305Z" fill="white"/>
<path d="M38.5465 47.6988H34.3024C33.8051 47.6988 33.3621 47.3849 33.1971 46.9157C33.0321 46.4465 33.1812 45.9243 33.5688 45.6128C34.7506 44.6636 36.5796 42.9288 36.9452 42.0438C37.0859 41.7037 37.0636 41.3284 36.8874 41.0648C36.7502 40.8597 36.5463 40.7559 36.281 40.7559C35.8362 40.7559 35.4743 41.1177 35.4743 41.5626C35.4743 42.2097 34.9498 42.7345 34.3024 42.7345C33.6551 42.7345 33.1306 42.2097 33.1306 41.5626C33.1306 39.8254 34.5438 38.4121 36.281 38.4121C37.3308 38.4121 38.262 38.9041 38.8355 39.7621C39.4505 40.6816 39.5534 41.8691 39.1113 42.9391C38.794 43.7064 38.0806 44.579 37.3315 45.3548H38.5465C39.1938 45.3548 39.7184 45.8795 39.7184 46.5266C39.7184 47.1738 39.1938 47.6988 38.5465 47.6988Z" fill="white"/>
<path d="M105.908 90.0762C105.26 90.0762 104.736 89.5514 104.736 88.9043C104.736 88.1934 104.157 87.6152 103.447 87.6152C102.799 87.6152 102.275 87.0905 102.275 86.4434C102.275 85.7963 102.799 85.2715 103.447 85.2715C104.157 85.2715 104.736 84.6933 104.736 83.9824C104.736 83.3353 105.26 82.8105 105.908 82.8105C106.555 82.8105 107.079 83.3353 107.079 83.9824C107.079 84.6933 107.658 85.2715 108.368 85.2715C109.016 85.2715 109.54 85.7963 109.54 86.4434C109.54 87.0905 109.016 87.6152 108.368 87.6152C107.658 87.6152 107.079 88.1934 107.079 88.9043C107.079 89.5514 106.555 90.0762 105.908 90.0762Z" fill="#6582FD"/>
<path d="M14.2697 73.9453C13.6224 73.9453 13.0978 73.4205 13.0978 72.7734C13.0978 72.0626 12.5194 71.4844 11.8088 71.4844C11.1614 71.4844 10.6369 70.9596 10.6369 70.3125C10.6369 69.6654 11.1614 69.1406 11.8088 69.1406C12.5194 69.1406 13.0978 68.5624 13.0978 67.8516C13.0978 67.2045 13.6224 66.6797 14.2697 66.6797C14.9171 66.6797 15.4416 67.2045 15.4416 67.8516C15.4416 68.5624 16.02 69.1406 16.7307 69.1406C17.378 69.1406 17.9025 69.6654 17.9025 70.3125C17.9025 70.9596 17.378 71.4844 16.7307 71.4844C16.02 71.4844 15.4416 72.0626 15.4416 72.7734C15.4416 73.4205 14.9171 73.9453 14.2697 73.9453Z" fill="#6582FD"/>
<path d="M13.6838 15.1172C13.0364 15.1172 12.5119 14.5924 12.5119 13.9453C12.5119 13.2345 11.9335 12.6562 11.2228 12.6562C10.5755 12.6562 10.051 12.1315 10.051 11.4844C10.051 10.8373 10.5755 10.3125 11.2228 10.3125C11.9335 10.3125 12.5119 9.7343 12.5119 9.02344C12.5119 8.37633 13.0364 7.85156 13.6838 7.85156C14.3311 7.85156 14.8557 8.37633 14.8557 9.02344C14.8557 9.7343 15.4341 10.3125 16.1447 10.3125C16.7921 10.3125 17.3166 10.8373 17.3166 11.4844C17.3166 12.1315 16.7921 12.6562 16.1447 12.6562C15.4341 12.6562 14.8557 13.2345 14.8557 13.9453C14.8557 14.5924 14.3311 15.1172 13.6838 15.1172Z" fill="#6582FD"/>
<path d="M106.381 37.8298C106.081 37.8298 105.781 37.7155 105.553 37.4867L103.092 35.0258C102.634 34.568 102.634 33.826 103.092 33.3685L105.553 30.9076C106.01 30.4501 106.752 30.4501 107.21 30.9076L109.671 33.3685C110.128 33.8262 110.128 34.5683 109.671 35.0258L107.21 37.4867C106.981 37.7155 106.681 37.8298 106.381 37.8298ZM105.577 34.197L106.381 35.0007L107.185 34.197L106.381 33.3934L105.577 34.197Z" fill="#6582FD"/>
<path d="M12.6291 87.2713C12.3293 87.2713 12.0291 87.1569 11.8006 86.9281L9.33964 84.4672C8.8819 84.0094 8.8819 83.2674 9.33964 82.8099L11.8006 80.349C12.2578 79.8915 13.0003 79.8915 13.4576 80.349L15.9185 82.8099C16.3763 83.2677 16.3763 84.0097 15.9185 84.4672L13.4576 86.9281C13.2289 87.1569 12.9289 87.2713 12.6291 87.2713ZM11.8254 83.6384L12.6291 84.4421L13.4328 83.6384L12.6291 82.8348L11.8254 83.6384Z" fill="#6582FD"/>
</g>
<defs>
<linearGradient id="paint0_linear_9514_75314" x1="8.24768" y1="91.0591" x2="99.5874" y2="-0.28054" gradientUnits="userSpaceOnUse">
<stop stop-color="#D1DDFF" stop-opacity="0"/>
<stop offset="1" stop-color="#B6C4FF"/>
</linearGradient>
<clipPath id="clip0_9514_75314">
<rect width="120" height="120" fill="white"/>
</clipPath>
</defs>
</svg>
